<mxfile host="Electron" agent="Mozilla/5.0 (Windows NT 10.0; Win64; x64) AppleWebKit/537.36 (KHTML, like Gecko) draw.io/27.0.9 Chrome/134.0.6998.205 Electron/35.4.0 Safari/537.36" version="27.0.9">
  <diagram name="Page-1" id="Iidc15UK4Lw07zpA8DIX">
    <mxGraphModel dx="856" dy="1621" grid="1" gridSize="10" guides="1" tooltips="1" connect="1" arrows="1" fold="1" page="1" pageScale="1" pageWidth="850" pageHeight="1100" math="0" shadow="0">
      <root>
        <mxCell id="0" />
        <mxCell id="1" parent="0" />
        <mxCell id="cZFWVjTa54NIjeMwkGfj-1" value="" style="rounded=0;whiteSpace=wrap;html=1;fillColor=none;dashed=1;" parent="1" vertex="1">
          <mxGeometry x="40" y="70" width="120" height="450" as="geometry" />
        </mxCell>
        <mxCell id="cZFWVjTa54NIjeMwkGfj-4" value="&lt;font style=&quot;font-size: 18px;&quot;&gt;SOURCES&lt;/font&gt;" style="rounded=0;whiteSpace=wrap;html=1;fillColor=default;strokeColor=none;" parent="1" vertex="1">
          <mxGeometry x="33.88" y="48" width="130.75" height="33" as="geometry" />
        </mxCell>
        <mxCell id="cZFWVjTa54NIjeMwkGfj-5" value="&lt;b&gt;Bronze Layer&lt;/b&gt;" style="rounded=0;whiteSpace=wrap;html=1;fillColor=#fad7ac;strokeColor=#b46504;" parent="1" vertex="1">
          <mxGeometry x="240" y="50" width="160" height="40" as="geometry" />
        </mxCell>
        <mxCell id="cZFWVjTa54NIjeMwkGfj-6" value="&lt;b&gt;Silver Layer&lt;/b&gt;" style="rounded=0;whiteSpace=wrap;html=1;fillColor=#f5f5f5;gradientColor=#b3b3b3;strokeColor=#666666;" parent="1" vertex="1">
          <mxGeometry x="440" y="50" width="160" height="36" as="geometry" />
        </mxCell>
        <mxCell id="cZFWVjTa54NIjeMwkGfj-7" value="&lt;b&gt;Gold Layer&lt;/b&gt;" style="rounded=0;whiteSpace=wrap;html=1;fillColor=#ffcd28;gradientColor=#ffa500;strokeColor=#d79b00;" parent="1" vertex="1">
          <mxGeometry x="640" y="48" width="160" height="38" as="geometry" />
        </mxCell>
        <mxCell id="cZFWVjTa54NIjeMwkGfj-8" style="edgeStyle=orthogonalEdgeStyle;rounded=0;orthogonalLoop=1;jettySize=auto;html=1;exitX=0.5;exitY=1;exitDx=0;exitDy=0;" parent="1" source="cZFWVjTa54NIjeMwkGfj-6" target="cZFWVjTa54NIjeMwkGfj-6" edge="1">
          <mxGeometry relative="1" as="geometry" />
        </mxCell>
        <mxCell id="cZFWVjTa54NIjeMwkGfj-11" value="" style="rounded=0;whiteSpace=wrap;html=1;strokeColor=#FF8000;" parent="1" vertex="1">
          <mxGeometry x="640" y="86" width="160" height="434" as="geometry" />
        </mxCell>
        <mxCell id="cZFWVjTa54NIjeMwkGfj-12" value="" style="shape=note;whiteSpace=wrap;html=1;backgroundOutline=1;darkOpacity=0.05;fillColor=#FFD966;" parent="1" vertex="1">
          <mxGeometry x="79" y="149" width="54" height="63" as="geometry" />
        </mxCell>
        <mxCell id="cZFWVjTa54NIjeMwkGfj-13" value="" style="shape=note;whiteSpace=wrap;html=1;backgroundOutline=1;darkOpacity=0.05;fillColor=#FFD966;" parent="1" vertex="1">
          <mxGeometry x="94" y="167" width="45" height="54" as="geometry" />
        </mxCell>
        <mxCell id="cZFWVjTa54NIjeMwkGfj-14" value="" style="shape=note;whiteSpace=wrap;html=1;backgroundOutline=1;darkOpacity=0.05;fillColor=#FFD966;" parent="1" vertex="1">
          <mxGeometry x="60" y="387" width="61.5" height="73" as="geometry" />
        </mxCell>
        <mxCell id="cZFWVjTa54NIjeMwkGfj-15" value="" style="shape=note;whiteSpace=wrap;html=1;backgroundOutline=1;darkOpacity=0.05;fillColor=#FFD966;size=22;" parent="1" vertex="1">
          <mxGeometry x="76.5" y="405" width="45" height="54" as="geometry" />
        </mxCell>
        <mxCell id="cZFWVjTa54NIjeMwkGfj-16" value="ERP" style="text;html=1;align=center;verticalAlign=middle;resizable=0;points=[];autosize=1;strokeColor=none;fillColor=none;" parent="1" vertex="1">
          <mxGeometry x="94" y="459" width="45" height="27" as="geometry" />
        </mxCell>
        <mxCell id="cZFWVjTa54NIjeMwkGfj-17" value="CRM" style="text;html=1;align=center;verticalAlign=middle;resizable=0;points=[];autosize=1;strokeColor=none;fillColor=none;" parent="1" vertex="1">
          <mxGeometry x="97" y="221" width="45" height="27" as="geometry" />
        </mxCell>
        <mxCell id="cZFWVjTa54NIjeMwkGfj-37" value="" style="rounded=0;whiteSpace=wrap;html=1;strokeColor=#FF8000;" parent="1" vertex="1">
          <mxGeometry x="440" y="86" width="160" height="434" as="geometry" />
        </mxCell>
        <mxCell id="cZFWVjTa54NIjeMwkGfj-38" value="" style="rounded=0;whiteSpace=wrap;html=1;strokeColor=#FF8000;" parent="1" vertex="1">
          <mxGeometry x="240" y="86" width="160" height="434" as="geometry" />
        </mxCell>
        <mxCell id="cZFWVjTa54NIjeMwkGfj-41" value="" style="rounded=1;whiteSpace=wrap;html=1;fillColor=#FFCC99;" parent="1" vertex="1">
          <mxGeometry x="250" y="120" width="140" height="40" as="geometry" />
        </mxCell>
        <mxCell id="cZFWVjTa54NIjeMwkGfj-42" value="" style="rounded=1;whiteSpace=wrap;html=1;fillColor=#FFCC99;" parent="1" vertex="1">
          <mxGeometry x="250" y="181" width="140" height="40" as="geometry" />
        </mxCell>
        <mxCell id="cZFWVjTa54NIjeMwkGfj-43" value="" style="rounded=1;whiteSpace=wrap;html=1;fillColor=#FFCC99;" parent="1" vertex="1">
          <mxGeometry x="250" y="248" width="140" height="40" as="geometry" />
        </mxCell>
        <mxCell id="cZFWVjTa54NIjeMwkGfj-44" value="" style="rounded=1;whiteSpace=wrap;html=1;fillColor=#FFCC99;" parent="1" vertex="1">
          <mxGeometry x="250" y="336" width="140" height="40" as="geometry" />
        </mxCell>
        <mxCell id="cZFWVjTa54NIjeMwkGfj-45" value="" style="rounded=1;whiteSpace=wrap;html=1;fillColor=#FFCC99;" parent="1" vertex="1">
          <mxGeometry x="250" y="400" width="140" height="40" as="geometry" />
        </mxCell>
        <mxCell id="cZFWVjTa54NIjeMwkGfj-46" value="" style="rounded=1;whiteSpace=wrap;html=1;fillColor=#FFCC99;" parent="1" vertex="1">
          <mxGeometry x="250" y="460" width="140" height="40" as="geometry" />
        </mxCell>
        <mxCell id="cZFWVjTa54NIjeMwkGfj-47" value="" style="rounded=1;whiteSpace=wrap;html=1;fillColor=#CCCCCC;" parent="1" vertex="1">
          <mxGeometry x="450" y="120" width="140" height="40" as="geometry" />
        </mxCell>
        <mxCell id="cZFWVjTa54NIjeMwkGfj-48" value="" style="rounded=1;whiteSpace=wrap;html=1;fillColor=#CCCCCC;" parent="1" vertex="1">
          <mxGeometry x="450" y="181" width="140" height="40" as="geometry" />
        </mxCell>
        <mxCell id="cZFWVjTa54NIjeMwkGfj-49" value="" style="rounded=1;whiteSpace=wrap;html=1;fillColor=#CCCCCC;" parent="1" vertex="1">
          <mxGeometry x="450" y="248" width="140" height="40" as="geometry" />
        </mxCell>
        <mxCell id="cZFWVjTa54NIjeMwkGfj-50" value="" style="rounded=1;whiteSpace=wrap;html=1;fillColor=#CCCCCC;" parent="1" vertex="1">
          <mxGeometry x="450" y="336" width="140" height="40" as="geometry" />
        </mxCell>
        <mxCell id="cZFWVjTa54NIjeMwkGfj-51" value="" style="rounded=1;whiteSpace=wrap;html=1;fillColor=#CCCCCC;" parent="1" vertex="1">
          <mxGeometry x="450" y="400" width="140" height="40" as="geometry" />
        </mxCell>
        <mxCell id="cZFWVjTa54NIjeMwkGfj-52" value="" style="rounded=1;whiteSpace=wrap;html=1;fillColor=#CCCCCC;" parent="1" vertex="1">
          <mxGeometry x="450" y="460" width="140" height="40" as="geometry" />
        </mxCell>
        <mxCell id="cZFWVjTa54NIjeMwkGfj-53" value="" style="rounded=1;whiteSpace=wrap;html=1;fillColor=#FFB366;" parent="1" vertex="1">
          <mxGeometry x="650" y="120" width="140" height="40" as="geometry" />
        </mxCell>
        <mxCell id="cZFWVjTa54NIjeMwkGfj-54" value="" style="rounded=1;whiteSpace=wrap;html=1;fillColor=#FFB366;" parent="1" vertex="1">
          <mxGeometry x="650" y="288" width="140" height="40" as="geometry" />
        </mxCell>
        <mxCell id="cZFWVjTa54NIjeMwkGfj-55" value="" style="rounded=1;whiteSpace=wrap;html=1;fillColor=#FFB366;" parent="1" vertex="1">
          <mxGeometry x="650" y="400" width="140" height="40" as="geometry" />
        </mxCell>
        <mxCell id="cZFWVjTa54NIjeMwkGfj-56" value="crm_sales_details" style="text;html=1;align=center;verticalAlign=middle;resizable=0;points=[];autosize=1;strokeColor=none;fillColor=none;" parent="1" vertex="1">
          <mxGeometry x="260" y="125" width="120" height="30" as="geometry" />
        </mxCell>
        <mxCell id="cZFWVjTa54NIjeMwkGfj-57" value="crm_cust_info" style="text;html=1;align=center;verticalAlign=middle;resizable=0;points=[];autosize=1;strokeColor=none;fillColor=none;" parent="1" vertex="1">
          <mxGeometry x="270" y="186" width="100" height="30" as="geometry" />
        </mxCell>
        <mxCell id="cZFWVjTa54NIjeMwkGfj-58" value="crm_prd_info" style="text;html=1;align=center;verticalAlign=middle;resizable=0;points=[];autosize=1;strokeColor=none;fillColor=none;" parent="1" vertex="1">
          <mxGeometry x="275" y="253" width="90" height="30" as="geometry" />
        </mxCell>
        <mxCell id="cZFWVjTa54NIjeMwkGfj-59" value="erp_cust_az12" style="text;html=1;align=center;verticalAlign=middle;resizable=0;points=[];autosize=1;strokeColor=none;fillColor=none;" parent="1" vertex="1">
          <mxGeometry x="270" y="341" width="100" height="30" as="geometry" />
        </mxCell>
        <mxCell id="cZFWVjTa54NIjeMwkGfj-60" value="erp_loc_a101" style="text;html=1;align=center;verticalAlign=middle;resizable=0;points=[];autosize=1;strokeColor=none;fillColor=none;" parent="1" vertex="1">
          <mxGeometry x="270" y="405" width="100" height="30" as="geometry" />
        </mxCell>
        <mxCell id="cZFWVjTa54NIjeMwkGfj-61" value="erp_px_cat_g1v2" style="text;html=1;align=center;verticalAlign=middle;resizable=0;points=[];autosize=1;strokeColor=none;fillColor=none;" parent="1" vertex="1">
          <mxGeometry x="260" y="465" width="120" height="30" as="geometry" />
        </mxCell>
        <mxCell id="cZFWVjTa54NIjeMwkGfj-63" value="crm_sales_details" style="text;html=1;align=center;verticalAlign=middle;resizable=0;points=[];autosize=1;strokeColor=none;fillColor=none;" parent="1" vertex="1">
          <mxGeometry x="460" y="125" width="120" height="30" as="geometry" />
        </mxCell>
        <mxCell id="cZFWVjTa54NIjeMwkGfj-64" value="crm_cust_info" style="text;html=1;align=center;verticalAlign=middle;resizable=0;points=[];autosize=1;strokeColor=none;fillColor=none;" parent="1" vertex="1">
          <mxGeometry x="470" y="186" width="100" height="30" as="geometry" />
        </mxCell>
        <mxCell id="cZFWVjTa54NIjeMwkGfj-65" value="crm_prd_info" style="text;html=1;align=center;verticalAlign=middle;resizable=0;points=[];autosize=1;strokeColor=none;fillColor=none;" parent="1" vertex="1">
          <mxGeometry x="475" y="253" width="90" height="30" as="geometry" />
        </mxCell>
        <mxCell id="cZFWVjTa54NIjeMwkGfj-66" value="erp_cust_az12" style="text;html=1;align=center;verticalAlign=middle;resizable=0;points=[];autosize=1;strokeColor=none;fillColor=none;" parent="1" vertex="1">
          <mxGeometry x="470" y="341" width="100" height="30" as="geometry" />
        </mxCell>
        <mxCell id="cZFWVjTa54NIjeMwkGfj-67" value="erp_loc_a101" style="text;html=1;align=center;verticalAlign=middle;resizable=0;points=[];autosize=1;strokeColor=none;fillColor=none;" parent="1" vertex="1">
          <mxGeometry x="470" y="405" width="100" height="30" as="geometry" />
        </mxCell>
        <mxCell id="cZFWVjTa54NIjeMwkGfj-68" value="erp_px_cat_g1v2" style="text;html=1;align=center;verticalAlign=middle;resizable=0;points=[];autosize=1;strokeColor=none;fillColor=none;" parent="1" vertex="1">
          <mxGeometry x="460" y="465" width="120" height="30" as="geometry" />
        </mxCell>
        <mxCell id="cZFWVjTa54NIjeMwkGfj-69" value="fact_sales" style="text;html=1;align=center;verticalAlign=middle;resizable=0;points=[];autosize=1;strokeColor=none;fillColor=none;" parent="1" vertex="1">
          <mxGeometry x="680" y="125" width="80" height="30" as="geometry" />
        </mxCell>
        <mxCell id="cZFWVjTa54NIjeMwkGfj-70" value="dim_customers" style="text;html=1;align=center;verticalAlign=middle;resizable=0;points=[];autosize=1;strokeColor=none;fillColor=none;" parent="1" vertex="1">
          <mxGeometry x="670" y="293" width="100" height="30" as="geometry" />
        </mxCell>
        <mxCell id="cZFWVjTa54NIjeMwkGfj-71" value="dim_products" style="text;html=1;align=center;verticalAlign=middle;resizable=0;points=[];autosize=1;strokeColor=none;fillColor=none;" parent="1" vertex="1">
          <mxGeometry x="670" y="405" width="100" height="30" as="geometry" />
        </mxCell>
        <mxCell id="cZFWVjTa54NIjeMwkGfj-72" value="" style="endArrow=classic;html=1;rounded=0;entryX=0;entryY=0.5;entryDx=0;entryDy=0;" parent="1" target="cZFWVjTa54NIjeMwkGfj-42" edge="1">
          <mxGeometry width="50" height="50" relative="1" as="geometry">
            <mxPoint x="142" y="200" as="sourcePoint" />
            <mxPoint x="192" y="150" as="targetPoint" />
          </mxGeometry>
        </mxCell>
        <mxCell id="cZFWVjTa54NIjeMwkGfj-73" value="" style="endArrow=classic;html=1;rounded=0;entryX=0;entryY=0.5;entryDx=0;entryDy=0;" parent="1" target="cZFWVjTa54NIjeMwkGfj-41" edge="1">
          <mxGeometry width="50" height="50" relative="1" as="geometry">
            <mxPoint x="142" y="199" as="sourcePoint" />
            <mxPoint x="192" y="149" as="targetPoint" />
          </mxGeometry>
        </mxCell>
        <mxCell id="cZFWVjTa54NIjeMwkGfj-74" value="" style="endArrow=classic;html=1;rounded=0;entryX=0;entryY=0.5;entryDx=0;entryDy=0;" parent="1" target="cZFWVjTa54NIjeMwkGfj-43" edge="1">
          <mxGeometry width="50" height="50" relative="1" as="geometry">
            <mxPoint x="142" y="199" as="sourcePoint" />
            <mxPoint x="192" y="149" as="targetPoint" />
          </mxGeometry>
        </mxCell>
        <mxCell id="cZFWVjTa54NIjeMwkGfj-75" value="" style="endArrow=classic;html=1;rounded=0;" parent="1" edge="1">
          <mxGeometry width="50" height="50" relative="1" as="geometry">
            <mxPoint x="121.5" y="419.5" as="sourcePoint" />
            <mxPoint x="250" y="419.5" as="targetPoint" />
          </mxGeometry>
        </mxCell>
        <mxCell id="cZFWVjTa54NIjeMwkGfj-77" value="" style="endArrow=classic;html=1;rounded=0;entryX=0;entryY=0.5;entryDx=0;entryDy=0;" parent="1" target="cZFWVjTa54NIjeMwkGfj-44" edge="1">
          <mxGeometry width="50" height="50" relative="1" as="geometry">
            <mxPoint x="121.5" y="419" as="sourcePoint" />
            <mxPoint x="229.5" y="360" as="targetPoint" />
          </mxGeometry>
        </mxCell>
        <mxCell id="cZFWVjTa54NIjeMwkGfj-78" value="" style="endArrow=classic;html=1;rounded=0;entryX=0.063;entryY=0.908;entryDx=0;entryDy=0;entryPerimeter=0;" parent="1" target="cZFWVjTa54NIjeMwkGfj-38" edge="1">
          <mxGeometry width="50" height="50" relative="1" as="geometry">
            <mxPoint x="120" y="419" as="sourcePoint" />
            <mxPoint x="228" y="360" as="targetPoint" />
          </mxGeometry>
        </mxCell>
        <mxCell id="cZFWVjTa54NIjeMwkGfj-79" value="" style="endArrow=classic;html=1;rounded=0;entryX=0;entryY=0.5;entryDx=0;entryDy=0;" parent="1" target="cZFWVjTa54NIjeMwkGfj-47" edge="1">
          <mxGeometry width="50" height="50" relative="1" as="geometry">
            <mxPoint x="390" y="140" as="sourcePoint" />
            <mxPoint x="440" y="90" as="targetPoint" />
          </mxGeometry>
        </mxCell>
        <mxCell id="cZFWVjTa54NIjeMwkGfj-80" value="" style="endArrow=classic;html=1;rounded=0;entryX=0;entryY=0.5;entryDx=0;entryDy=0;" parent="1" edge="1">
          <mxGeometry width="50" height="50" relative="1" as="geometry">
            <mxPoint x="390" y="200.5" as="sourcePoint" />
            <mxPoint x="450" y="200.5" as="targetPoint" />
          </mxGeometry>
        </mxCell>
        <mxCell id="cZFWVjTa54NIjeMwkGfj-81" value="" style="endArrow=classic;html=1;rounded=0;entryX=0;entryY=0.5;entryDx=0;entryDy=0;" parent="1" edge="1">
          <mxGeometry width="50" height="50" relative="1" as="geometry">
            <mxPoint x="390" y="267.5" as="sourcePoint" />
            <mxPoint x="450" y="267.5" as="targetPoint" />
          </mxGeometry>
        </mxCell>
        <mxCell id="cZFWVjTa54NIjeMwkGfj-82" value="" style="endArrow=classic;html=1;rounded=0;entryX=0;entryY=0.5;entryDx=0;entryDy=0;" parent="1" edge="1">
          <mxGeometry width="50" height="50" relative="1" as="geometry">
            <mxPoint x="390" y="355.5" as="sourcePoint" />
            <mxPoint x="450" y="355.5" as="targetPoint" />
          </mxGeometry>
        </mxCell>
        <mxCell id="cZFWVjTa54NIjeMwkGfj-83" value="" style="endArrow=classic;html=1;rounded=0;entryX=0;entryY=0.5;entryDx=0;entryDy=0;" parent="1" edge="1">
          <mxGeometry width="50" height="50" relative="1" as="geometry">
            <mxPoint x="390" y="419.5" as="sourcePoint" />
            <mxPoint x="450" y="419.5" as="targetPoint" />
          </mxGeometry>
        </mxCell>
        <mxCell id="cZFWVjTa54NIjeMwkGfj-84" value="" style="endArrow=classic;html=1;rounded=0;entryX=0;entryY=0.5;entryDx=0;entryDy=0;" parent="1" edge="1">
          <mxGeometry width="50" height="50" relative="1" as="geometry">
            <mxPoint x="390" y="479.5" as="sourcePoint" />
            <mxPoint x="450" y="479.5" as="targetPoint" />
          </mxGeometry>
        </mxCell>
        <mxCell id="cZFWVjTa54NIjeMwkGfj-85" value="" style="endArrow=classic;html=1;rounded=0;entryX=0;entryY=0.5;entryDx=0;entryDy=0;jumpStyle=gap;" parent="1" target="cZFWVjTa54NIjeMwkGfj-53" edge="1">
          <mxGeometry width="50" height="50" relative="1" as="geometry">
            <mxPoint x="590" y="139.57" as="sourcePoint" />
            <mxPoint x="640" y="139.49999999999994" as="targetPoint" />
          </mxGeometry>
        </mxCell>
        <mxCell id="cZFWVjTa54NIjeMwkGfj-86" value="" style="endArrow=classic;html=1;rounded=0;entryX=0;entryY=0.25;entryDx=0;entryDy=0;jumpStyle=gap;" parent="1" target="cZFWVjTa54NIjeMwkGfj-54" edge="1">
          <mxGeometry width="50" height="50" relative="1" as="geometry">
            <mxPoint x="590" y="199" as="sourcePoint" />
            <mxPoint x="640" y="149" as="targetPoint" />
          </mxGeometry>
        </mxCell>
        <mxCell id="cZFWVjTa54NIjeMwkGfj-87" value="" style="endArrow=classic;html=1;rounded=0;entryX=0;entryY=0.25;entryDx=0;entryDy=0;jumpStyle=gap;" parent="1" target="cZFWVjTa54NIjeMwkGfj-54" edge="1">
          <mxGeometry width="50" height="50" relative="1" as="geometry">
            <mxPoint x="590" y="360" as="sourcePoint" />
            <mxPoint x="650" y="459" as="targetPoint" />
          </mxGeometry>
        </mxCell>
        <mxCell id="cZFWVjTa54NIjeMwkGfj-88" value="" style="endArrow=classic;html=1;rounded=0;entryX=0;entryY=0.5;entryDx=0;entryDy=0;jumpStyle=gap;" parent="1" target="cZFWVjTa54NIjeMwkGfj-54" edge="1">
          <mxGeometry width="50" height="50" relative="1" as="geometry">
            <mxPoint x="590" y="423" as="sourcePoint" />
            <mxPoint x="650" y="522" as="targetPoint" />
          </mxGeometry>
        </mxCell>
        <mxCell id="cZFWVjTa54NIjeMwkGfj-89" value="" style="endArrow=classic;html=1;rounded=0;entryX=0;entryY=0.25;entryDx=0;entryDy=0;jumpStyle=gap;" parent="1" target="cZFWVjTa54NIjeMwkGfj-55" edge="1">
          <mxGeometry width="50" height="50" relative="1" as="geometry">
            <mxPoint x="590" y="272" as="sourcePoint" />
            <mxPoint x="650" y="371" as="targetPoint" />
          </mxGeometry>
        </mxCell>
        <mxCell id="cZFWVjTa54NIjeMwkGfj-90" value="" style="endArrow=classic;html=1;rounded=0;entryX=0;entryY=0.75;entryDx=0;entryDy=0;jumpStyle=gap;" parent="1" target="cZFWVjTa54NIjeMwkGfj-55" edge="1">
          <mxGeometry width="50" height="50" relative="1" as="geometry">
            <mxPoint x="590" y="486" as="sourcePoint" />
            <mxPoint x="650" y="585" as="targetPoint" />
          </mxGeometry>
        </mxCell>
        <mxCell id="J0f4-_IzdwmIRr93HE3i-1" value="&lt;span style=&quot;font-size: 35px;&quot;&gt;&lt;b&gt;Data Flow Diagram&lt;/b&gt;&lt;/span&gt;" style="text;html=1;align=center;verticalAlign=middle;resizable=0;points=[];autosize=1;strokeColor=none;fillColor=none;" parent="1" vertex="1">
          <mxGeometry x="132" y="-70" width="340" height="60" as="geometry" />
        </mxCell>
      </root>
    </mxGraphModel>
  </diagram>
</mxfile>
